<svg width="280" height="178" viewBox="0 0 280 178" fill="none" xmlns="http://www.w3.org/2000/svg">
<path fill-rule="evenodd" clip-rule="evenodd" d="M82.1714 -7.62939e-06C113.746 -7.62939e-06 139.342 25.5967 139.342 57.1713C139.342 88.7469 113.746 114.343 82.1714 114.343C50.596 114.343 25 88.7469 25 57.1713C25 25.5967 50.596 -7.62939e-06 82.1714 -7.62939e-06ZM198.829 -7.62939e-06C230.404 -7.62939e-06 256 25.5967 256 57.1713C256 88.7469 230.404 114.343 198.829 114.343C167.253 114.343 141.658 88.7469 141.658 57.1713C141.658 25.5967 167.253 -7.62939e-06 198.829 -7.62939e-06Z" fill="#D9D9D9"/>
<path fill-rule="evenodd" clip-rule="evenodd" d="M82.1713 1.85272C112.724 1.85272 137.49 26.6188 137.49 57.1712C137.49 87.7234 112.724 112.49 82.1713 112.49C51.6193 112.49 26.8528 87.7234 26.8528 57.1712C26.8528 26.6188 51.6193 1.85272 82.1713 1.85272Z" fill="black"/>
<path fill-rule="evenodd" clip-rule="evenodd" d="M48.8094 24.768H111.198L122.991 37.6409L122.998 97.1761L106.657 108.868L107.729 39.6248H92.7599V88.4377H79.0413V39.6248H63.4579V88.4377H48.8076V39.6248H48.8096L48.8094 24.768Z" fill="#D9D9D9"/>
<path fill-rule="evenodd" clip-rule="evenodd" d="M198.829 1.85272C229.381 1.85272 254.147 26.6188 254.147 57.1712C254.147 87.7234 229.381 112.49 198.829 112.49C168.277 112.49 143.51 87.7234 143.51 57.1712C143.51 26.6188 168.277 1.85272 198.829 1.85272Z" fill="black"/>
<path fill-rule="evenodd" clip-rule="evenodd" d="M178.54 24.768H246.009L253.307 39.5873L178.54 39.6243V24.768Z" fill="#D9D9D9"/>
<path fill-rule="evenodd" clip-rule="evenodd" d="M178.54 55.9249H193.192L193.141 114.098L178.591 110.675L178.54 55.9249Z" fill="#D9D9D9"/>
<path fill-rule="evenodd" clip-rule="evenodd" d="M178.539 55.9249H222.865L213.264 70.7791H178.539V55.9249Z" fill="#D9D9D9"/>
<path fill-rule="evenodd" clip-rule="evenodd" d="M22.2346 125H11.1174L0 177.926H11.2905L12.4105 172.112H21.1151L22.2346 177.926H33.5251L22.2346 125ZM16.7198 147.349L19.6489 162.222H13.8763L16.7198 147.349Z" fill="#D9D9D9"/>
<path fill-rule="evenodd" clip-rule="evenodd" d="M22.2346 125H11.1174L0 177.926H11.2905L12.4105 172.112H21.1151L22.2346 177.926H33.5251L22.2346 125ZM16.7198 147.349L19.6489 162.222H13.8763L16.7198 147.349Z" fill="url(#paint0_linear)"/>
<path fill-rule="evenodd" clip-rule="evenodd" d="M35.9874 131.342V171.508L43.2267 177.926H61.6696L68.9935 171.508V162.674H58.0503V168.337H46.8466V134.513H58.0503V140.251H68.9935V131.342L61.755 125H43.1399L35.9874 131.342Z" fill="#D9D9D9"/>
<path fill-rule="evenodd" clip-rule="evenodd" d="M35.9874 131.342V171.508L43.2267 177.926H61.6696L68.9935 171.508V162.674H58.0503V168.337H46.8466V134.513H58.0503V140.251H68.9935V131.342L61.755 125H43.1399L35.9874 131.342Z" fill="url(#paint1_linear)"/>
<path fill-rule="evenodd" clip-rule="evenodd" d="M85.6785 162.222L88.5225 147.349L91.4518 162.222H85.6785ZM82.9204 125L71.803 177.926H83.0935L84.2125 172.112H92.9173L94.0368 177.926H105.327L94.0368 125H82.9204Z" fill="#D9D9D9"/>
<path fill-rule="evenodd" clip-rule="evenodd" d="M85.6785 162.222L88.5225 147.349L91.4518 162.222H85.6785ZM82.9204 125L71.803 177.926H83.0935L84.2125 172.112H92.9173L94.0368 177.926H105.327L94.0368 125H82.9204Z" fill="url(#paint2_linear)"/>
<path fill-rule="evenodd" clip-rule="evenodd" d="M120.458 134.513H131.661V168.337H120.458V134.513ZM109.513 125V177.926H135.367L142.52 171.583V131.342L135.367 125H109.513Z" fill="#D9D9D9"/>
<path fill-rule="evenodd" clip-rule="evenodd" d="M120.458 134.513H131.661V168.337H120.458V134.513ZM109.513 125V177.926H135.367L142.52 171.583V131.342L135.367 125H109.513Z" fill="url(#paint3_linear)"/>
<path fill-rule="evenodd" clip-rule="evenodd" d="M148.173 125V177.926H181.179V168.337H159.031V156.332H170.32V146.593H159.031V134.513H181.179V125H148.173Z" fill="#D9D9D9"/>
<path fill-rule="evenodd" clip-rule="evenodd" d="M148.173 125V177.926H181.179V168.337H159.031V156.332H170.32V146.593H159.031V134.513H181.179V125H148.173Z" fill="url(#paint4_linear)"/>
<path fill-rule="evenodd" clip-rule="evenodd" d="M211.823 125L204.326 145.234L196.828 125H185.97V177.926H196.828V155.879L204.326 176.189L211.823 155.955V177.926H222.681V125H211.823Z" fill="#D9D9D9"/>
<path fill-rule="evenodd" clip-rule="evenodd" d="M211.823 125L204.326 145.234L196.828 125H185.97V177.926H196.828V155.879L204.326 176.189L211.823 155.955V177.926H222.681V125H211.823Z" fill="url(#paint5_linear)"/>
<path fill-rule="evenodd" clip-rule="evenodd" d="M228.333 125V177.926H239.192V125H228.333Z" fill="#D9D9D9"/>
<path fill-rule="evenodd" clip-rule="evenodd" d="M228.333 125V177.926H239.192V125H228.333Z" fill="url(#paint6_linear)"/>
<path fill-rule="evenodd" clip-rule="evenodd" d="M260.351 162.222L263.195 147.349L266.125 162.222H260.351ZM257.592 125L246.476 177.926H257.765L258.886 172.112H267.59L268.71 177.926H280L268.71 125H257.592Z" fill="#D9D9D9"/>
<path fill-rule="evenodd" clip-rule="evenodd" d="M260.351 162.222L263.195 147.349L266.125 162.222H260.351ZM257.592 125L246.476 177.926H257.765L258.886 172.112H267.59L268.71 177.926H280L268.71 125H257.592Z" fill="url(#paint7_linear)"/>
<defs>
<linearGradient id="paint0_linear" x1="16.7626" y1="125" x2="16.7626" y2="177.926" gradientUnits="userSpaceOnUse">
<stop offset="0.40625" stop-color="white" stop-opacity="0"/>
<stop offset="1" stop-color="#EFF7FF"/>
</linearGradient>
<linearGradient id="paint1_linear" x1="52.4905" y1="125" x2="52.4905" y2="177.926" gradientUnits="userSpaceOnUse">
<stop offset="0.40625" stop-color="white" stop-opacity="0"/>
<stop offset="1" stop-color="#EFF7FF"/>
</linearGradient>
<linearGradient id="paint2_linear" x1="88.5651" y1="125" x2="88.5651" y2="177.926" gradientUnits="userSpaceOnUse">
<stop offset="0.40625" stop-color="white" stop-opacity="0"/>
<stop offset="1" stop-color="#EFF7FF"/>
</linearGradient>
<linearGradient id="paint3_linear" x1="126.016" y1="125" x2="126.016" y2="177.926" gradientUnits="userSpaceOnUse">
<stop offset="0.40625" stop-color="white" stop-opacity="0"/>
<stop offset="1" stop-color="#EFF7FF"/>
</linearGradient>
<linearGradient id="paint4_linear" x1="164.676" y1="125" x2="164.676" y2="177.926" gradientUnits="userSpaceOnUse">
<stop offset="0.40625" stop-color="white" stop-opacity="0"/>
<stop offset="1" stop-color="#EFF7FF"/>
</linearGradient>
<linearGradient id="paint5_linear" x1="204.325" y1="125" x2="204.325" y2="177.926" gradientUnits="userSpaceOnUse">
<stop offset="0.40625" stop-color="white" stop-opacity="0"/>
<stop offset="1" stop-color="#EFF7FF"/>
</linearGradient>
<linearGradient id="paint6_linear" x1="233.763" y1="125" x2="233.763" y2="177.926" gradientUnits="userSpaceOnUse">
<stop offset="0.40625" stop-color="white" stop-opacity="0"/>
<stop offset="1" stop-color="#EFF7FF"/>
</linearGradient>
<linearGradient id="paint7_linear" x1="263.238" y1="125" x2="263.238" y2="177.926" gradientUnits="userSpaceOnUse">
<stop offset="0.40625" stop-color="white" stop-opacity="0"/>
<stop offset="1" stop-color="#EFF7FF"/>
</linearGradient>
</defs>
</svg>
